<?xml version="1.0" encoding="UTF-8"?>
<svg xmlns="http://www.w3.org/2000/svg" xmlns:xlink="http://www.w3.org/1999/xlink" width="2667px" height="2372px" viewBox="0 0 1499 1334" version="1.1">
<g id="surface1">
<path style=" stroke:none;fill-rule:nonzero;fill:rgb(0%,0%,0%);fill-opacity:1;" d="M 395.8125 105.792969 C 357.285156 108.566406 329.40625 119.515625 308.945312 140.058594 C 303.773438 145.230469 300.023438 148.304688 297.703125 149.28125 C 289.53125 152.804688 276.117188 165.175781 266.972656 177.472656 C 256.703125 191.492188 239.316406 221.933594 221.925781 256.421875 C 204.238281 291.4375 194.71875 313.632812 190.746094 328.851562 C 186.851562 343.695312 188.5 358.617188 195.542969 372.261719 C 203.714844 388.082031 224.773438 412.226562 249.058594 433.519531 C 258.503906 441.917969 259.625 443.117188 262.773438 449.039062 C 270.792969 464.1875 283.3125 480.679688 296.800781 494.027344 C 311.492188 508.574219 328.804688 520.492188 348.890625 530.015625 L 353.613281 532.265625 L 353.914062 555.359375 C 354.289062 581.527344 354.8125 584.898438 360.585938 596.597656 C 373.550781 623.0625 404.207031 636.484375 432.835938 628.160156 C 453.371094 622.238281 469.636719 605.367188 475.257812 584.375 C 476.683594 579.125 476.832031 576.503906 476.757812 560.53125 C 476.683594 550.636719 476.832031 541.9375 477.132812 541.1875 C 477.355469 540.4375 478.257812 539.839844 479.230469 539.839844 C 480.128906 539.839844 481.179688 539.539062 481.628906 539.238281 C 482.003906 538.863281 483.800781 538.1875 485.675781 537.664062 C 490.921875 536.164062 501.863281 531.742188 509.734375 527.839844 C 548.558594 508.949219 580.5625 475.65625 597.578125 436.742188 C 601.546875 427.746094 604.546875 419.5 606.644531 412.078125 C 608.59375 405.402344 609.644531 403.753906 617.589844 394.757812 C 625.308594 385.835938 633.328125 374.0625 636.027344 367.316406 C 642.246094 351.945312 642.472656 337.699219 636.699219 320.527344 C 631.304688 304.332031 613.015625 264.96875 598.699219 238.804688 C 596.453125 234.679688 593.304688 228.90625 591.730469 226.058594 C 585.132812 213.984375 574.417969 195.917969 567.445312 185.195312 C 556.054688 167.726562 541.589844 153.402344 530.195312 148.378906 C 528.097656 147.40625 524.648438 144.632812 521.050781 140.808594 C 505.835938 124.914062 486.5 114.867188 460.566406 109.46875 C 441.15625 105.492188 418.519531 104.144531 395.8125 105.792969 Z M 443.703125 123.261719 C 478.78125 128.0625 500.066406 138.859375 515.65625 159.777344 C 529.972656 178.972656 538.589844 213.761719 535.96875 241.800781 C 533.269531 269.992188 523.601562 296.460938 507.785156 318.804688 C 504.113281 324.054688 500.816406 328.402344 500.589844 328.402344 C 500.367188 328.402344 497.441406 324.800781 494.144531 320.304688 C 490.847656 315.878906 483.578125 307.484375 477.957031 301.632812 C 465.363281 288.511719 462.589844 284.839844 458.394531 275.84375 C 449.773438 257.621094 447.300781 238.429688 447.601562 190.441406 C 447.75 165.925781 447.601562 161.578125 446.476562 156.328125 C 444.003906 145.230469 439.507812 138.410156 431.9375 134.433594 C 426.539062 131.585938 421.445312 130.460938 413.722656 130.460938 C 394.160156 130.460938 383.96875 139.160156 380.671875 158.652344 C 380.070312 162.101562 379.847656 175.222656 379.847656 198.691406 C 379.921875 237.003906 379.320312 244.652344 375.5 259.796875 C 371.226562 276.816406 366.355469 285.214844 352.113281 300.285156 C 343.121094 309.808594 336.449219 317.753906 331.277344 324.878906 C 329.929688 326.828125 328.582031 328.402344 328.355469 328.402344 C 327.230469 328.328125 314.117188 308.609375 310.21875 301.109375 C 302.5 286.265625 296.953125 269.320312 294.105469 252.222656 C 292.230469 241.203125 292.230469 218.410156 294.027344 208.738281 C 301 171.699219 316.363281 148.90625 343.496094 135.257812 C 358.410156 127.835938 373.625 124.164062 399.484375 121.914062 C 406.378906 121.3125 436.058594 122.214844 443.703125 123.261719 Z M 420.84375 147.78125 C 424.890625 148.90625 427.738281 151.753906 429.238281 156.328125 C 430.289062 159.476562 430.511719 165.925781 431.039062 198.691406 C 431.488281 231.90625 431.785156 238.652344 433.0625 247.050781 C 437.484375 275.242188 444.828125 291.210938 461.167969 308.15625 C 472.410156 319.929688 476.382812 324.203125 480.578125 329.527344 C 489.046875 340.246094 496.84375 353.894531 500.214844 364.015625 C 502.765625 371.363281 503.589844 383.511719 502.238281 390.78125 C 498.71875 408.777344 485.152344 418.375 463.117188 418.375 C 441.605469 418.375 426.691406 410.203125 423.167969 396.480469 L 422.191406 392.582031 L 424.742188 389.285156 C 432.085938 379.6875 453.746094 339.5 454.570312 334.023438 C 455.621094 327.203125 450.898438 323.527344 437.707031 320.753906 C 426.242188 318.355469 402.632812 318.355469 391.238281 320.828125 C 381.644531 322.851562 377.148438 324.953125 375.199219 328.25 C 372.953125 332.226562 373.476562 335.675781 377.746094 344.148438 C 387.640625 363.867188 400.234375 385.460938 404.503906 390.03125 C 406.152344 391.757812 406.304688 392.433594 405.855469 395.28125 C 404.128906 405.554688 393.789062 414.25 379.621094 417.25 C 373.402344 418.523438 357.738281 418.75 352.113281 417.550781 C 339.222656 414.851562 329.480469 404.878906 326.707031 391.609375 C 325.359375 384.859375 326.257812 371.214844 328.503906 364.765625 C 334.128906 348.644531 346.570312 330.351562 365.304688 310.480469 C 378.871094 296.160156 384.195312 287.539062 389.289062 271.945312 C 395.285156 253.648438 396.484375 241.652344 396.484375 198.164062 C 396.484375 169.675781 396.710938 163.226562 397.683594 158.878906 C 399.109375 152.578125 401.882812 148.980469 406.078125 147.855469 C 409.902344 146.804688 417.246094 146.804688 420.84375 147.78125 Z M 554.929688 195.691406 C 576.664062 228.457031 614.289062 302.308594 622.011719 327.125 C 629.804688 352.542969 621.710938 369.5625 583.933594 407.128906 C 550.507812 440.34375 518.878906 461.863281 503.363281 461.863281 C 493.171875 461.863281 485.226562 454.4375 480.429688 440.417969 C 478.179688 433.894531 478.105469 433.96875 485.601562 431.71875 C 501.191406 426.921875 511.984375 415.75 517.304688 398.878906 C 518.804688 393.933594 519.027344 391.757812 519.027344 381.261719 C 519.027344 367.839844 517.90625 362.515625 513.03125 351.792969 C 511.609375 348.71875 510.410156 345.722656 510.410156 345.121094 C 510.410156 344.523438 514.082031 338.972656 518.503906 332.675781 C 528.023438 319.328125 531.769531 313.332031 536.191406 304.035156 C 546.234375 283.191406 552.082031 259.121094 552.90625 235.429688 C 553.429688 220.058594 552.457031 211.0625 548.558594 195.691406 C 546.984375 189.316406 545.636719 183.695312 545.636719 183.320312 C 545.710938 182.121094 548.257812 185.570312 554.929688 195.691406 Z M 281.0625 192.167969 C 274.390625 217.585938 274.167969 236.480469 280.386719 266.84375 C 282.488281 277.117188 287.808594 292.488281 293.128906 303.660156 C 298.449219 314.753906 299.875 317.078125 310.292969 331.625 C 314.640625 337.699219 318.460938 343.171875 318.835938 343.695312 C 319.285156 344.371094 318.460938 347.144531 316.363281 352.09375 C 311.417969 363.566406 310.066406 369.863281 309.992188 381.261719 C 309.917969 391.308594 310.667969 395.957031 313.441406 403.378906 C 315.6875 409.226562 320.859375 417.023438 325.433594 421.449219 C 329.855469 425.648438 340.347656 431.195312 347.019531 432.921875 C 350.992188 433.894531 351.140625 434.042969 351.066406 436.445312 C 350.992188 439.816406 346.867188 449.414062 343.644531 453.765625 C 340.574219 457.960938 335.925781 460.8125 330.304688 462.011719 C 324.535156 463.210938 318.164062 461.5625 306.921875 455.863281 C 281.0625 442.816406 240.289062 406.527344 217.128906 376.011719 C 212.183594 369.488281 207.535156 360.265625 206.113281 354.195312 C 205.136719 349.84375 204.914062 342.273438 205.738281 337.324219 C 207.984375 322.476562 228.523438 277.34375 255.429688 227.933594 C 259.253906 220.957031 274.839844 194.417969 277.539062 190.441406 C 279.863281 186.917969 282.710938 183.546875 283.011719 183.917969 C 283.085938 183.996094 282.1875 187.742188 281.0625 192.167969 Z M 406.230469 439.066406 C 406.230469 449.488281 406.527344 455.113281 407.351562 458.710938 C 408.777344 464.710938 412.898438 473.40625 414.546875 473.707031 C 416.273438 474.007812 420.167969 466.285156 421.96875 458.789062 C 423.167969 453.613281 423.46875 449.941406 423.46875 438.394531 C 423.46875 430.597656 423.691406 424.371094 424.066406 424.523438 C 424.367188 424.671875 427.363281 426.171875 430.8125 427.898438 C 437.257812 431.121094 446.476562 433.671875 455.019531 434.496094 L 459.96875 434.945312 L 460.417969 481.128906 C 461.316406 560.457031 461.167969 573.203125 459.519531 579.726562 C 452.996094 605.144531 427.515625 619.988281 402.929688 612.792969 C 391.914062 609.566406 381.195312 600.945312 376.023438 590.972656 C 370.476562 580.402344 370.851562 586.175781 370.179688 507.222656 C 369.878906 468.007812 369.878906 435.769531 370.101562 435.542969 C 370.402344 435.320312 373.777344 434.71875 377.671875 434.195312 C 386.140625 433.144531 395.136719 430.296875 400.457031 426.996094 C 402.632812 425.648438 404.804688 424.523438 405.328125 424.449219 C 406.003906 424.371094 406.230469 427.746094 406.230469 439.066406 Z M 406.230469 439.066406 "/>
<path style=" stroke:none;fill-rule:nonzero;fill:rgb(0%,0%,0%);fill-opacity:1;" d="M 335.402344 201.765625 C 320.1875 204.164062 307.96875 218.335938 314.640625 225.832031 C 316.214844 227.707031 319.585938 227.480469 326.109375 225.234375 C 329.332031 224.109375 334.128906 223.132812 337.648438 222.90625 C 343.195312 222.535156 344.320312 222.683594 351.816406 225.234375 C 356.238281 226.808594 360.585938 227.933594 361.484375 227.78125 C 363.582031 227.480469 366.503906 223.058594 366.503906 220.285156 C 366.503906 214.960938 361.558594 208.289062 355.113281 204.988281 C 349.566406 202.140625 341.398438 200.863281 335.402344 201.765625 Z M 335.402344 201.765625 "/>
<path style=" stroke:none;fill-rule:nonzero;fill:rgb(0%,0%,0%);fill-opacity:1;" d="M 479.753906 202.0625 C 468.136719 205.363281 460.492188 213.609375 461.992188 221.332031 C 462.589844 224.78125 464.988281 227.183594 467.6875 227.183594 C 468.886719 227.183594 472.632812 226.132812 476.082031 224.78125 C 484.476562 221.558594 492.796875 221.484375 502.015625 224.484375 C 505.539062 225.605469 509.433594 226.433594 511.007812 226.28125 C 513.332031 226.058594 513.855469 225.683594 514.757812 223.359375 C 517.15625 216.984375 511.234375 208.511719 501.191406 203.9375 C 494.746094 200.863281 486.5 200.191406 479.753906 202.0625 Z M 479.753906 202.0625 "/>
<path style=" stroke:none;fill-rule:nonzero;fill:rgb(0%,0%,0%);fill-opacity:1;" d="M 1077.78125 159.027344 C 1040.90625 162.703125 1014.523438 173.421875 995.410156 192.691406 C 989.941406 198.089844 987.015625 200.414062 983.34375 202.140625 C 968.804688 209.039062 954.636719 224.933594 936.949219 254.25 C 920.234375 282.066406 903.222656 314.832031 892.730469 339.421875 C 878.113281 373.6875 875.640625 388.535156 882.160156 402.480469 C 883.4375 405.179688 884.710938 407.652344 885.007812 407.878906 C 885.910156 408.476562 894.152344 420.023438 894.152344 420.625 C 894.152344 422.722656 885.910156 426.695312 877.140625 428.796875 C 863.347656 432.09375 853.605469 437.269531 845.136719 445.742188 C 839.214844 451.589844 834.941406 458.863281 834.941406 462.910156 C 834.941406 468.308594 841.164062 477.382812 848.210938 482.179688 C 856.078125 487.652344 869.945312 490.726562 882.910156 490.054688 C 900.300781 489.078125 913.039062 486.679688 924.433594 482.179688 L 930.203125 479.855469 L 932.453125 482.480469 C 933.726562 483.90625 937.023438 486.152344 939.722656 487.503906 C 944.070312 489.679688 945.417969 489.976562 950.742188 489.976562 C 955.761719 489.976562 957.410156 489.679688 960.859375 487.953125 C 963.109375 486.828125 965.878906 485.179688 966.929688 484.28125 L 968.878906 482.707031 L 972.027344 484.953125 C 982.519531 492.601562 997.734375 491.851562 1007.179688 483.304688 L 1010.175781 480.53125 L 1012.722656 482.707031 C 1020.742188 489.527344 1032.0625 492.078125 1041.503906 489.226562 C 1043.605469 488.628906 1048.101562 488.105469 1051.921875 488.105469 C 1070.136719 488.105469 1085.199219 482.855469 1095.167969 473.257812 L 1100.265625 468.382812 L 1105.4375 473.332031 C 1114.957031 482.554688 1127.699219 487.203125 1145.234375 487.804688 C 1150.78125 488.027344 1158.128906 488.703125 1161.574219 489.378906 C 1166.820312 490.429688 1168.546875 490.429688 1172.816406 489.679688 C 1178.214844 488.703125 1186.308594 485.105469 1188.40625 482.78125 C 1190.207031 480.832031 1191.03125 480.980469 1194.777344 483.980469 C 1204.820312 492.003906 1219.363281 492.078125 1230.003906 484.203125 L 1232.027344 482.707031 L 1235.925781 485.40625 C 1246.195312 492.453125 1259.460938 491.402344 1268.003906 482.78125 L 1270.925781 479.78125 L 1276.472656 481.957031 C 1288.617188 486.828125 1298.433594 488.703125 1316.871094 489.976562 C 1334.261719 491.175781 1349.175781 486.679688 1358.09375 477.683594 C 1365.589844 470.183594 1367.539062 463.210938 1364.164062 456.539062 C 1358.019531 444.390625 1344.679688 434.570312 1327.964844 429.921875 C 1315.371094 426.472656 1313.5 425.796875 1310.5 423.699219 C 1308.851562 422.574219 1307.429688 421.148438 1307.277344 420.550781 C 1307.203125 419.875 1309.078125 416.875 1311.476562 413.800781 C 1313.875 410.726562 1317.097656 406.152344 1318.59375 403.679688 C 1323.617188 395.28125 1323.992188 385.160156 1319.792969 368.664062 C 1315.898438 353.367188 1300.605469 319.402344 1282.917969 287.164062 C 1262.683594 250.050781 1250.539062 231.230469 1238.472656 218.335938 C 1231.128906 210.460938 1225.132812 205.738281 1218.085938 202.289062 C 1215.3125 200.941406 1212.242188 198.839844 1211.191406 197.566406 C 1202.046875 186.542969 1186.90625 175.898438 1171.617188 169.824219 C 1159.703125 165.101562 1149.285156 162.550781 1132.496094 160.003906 C 1122.976562 158.652344 1088.273438 157.976562 1077.78125 159.027344 Z M 1125.074219 175.824219 C 1155.203125 178.972656 1176.789062 187.519531 1192.828125 202.589844 C 1206.917969 215.785156 1216.738281 236.402344 1221.308594 262.570312 C 1227.457031 297.511719 1216.589844 341.296875 1193.953125 372.636719 C 1190.28125 377.8125 1186.90625 382.085938 1186.535156 382.234375 C 1186.160156 382.386719 1185.109375 381.1875 1184.136719 379.609375 C 1180.914062 374.4375 1171.019531 362.589844 1161.574219 352.621094 C 1148.382812 338.75 1143.8125 331.324219 1139.613281 316.703125 C 1134.96875 300.585938 1133.992188 289.261719 1133.992188 248.925781 C 1133.992188 219.835938 1133.84375 215.558594 1132.570312 209.414062 C 1129.644531 195.242188 1122.527344 187.367188 1110.308594 184.820312 C 1100.265625 182.71875 1088.425781 183.917969 1081.902344 187.820312 C 1077.707031 190.292969 1072.757812 195.765625 1070.660156 200.414062 C 1067.0625 208.210938 1066.539062 214.886719 1066.539062 250.050781 C 1066.539062 282.289062 1066.015625 292.335938 1063.839844 304.183594 C 1061.367188 318.054688 1056.121094 331.777344 1050.273438 339.875 C 1048.773438 342.046875 1044.277344 347.144531 1040.304688 351.269531 C 1031.238281 360.640625 1023.816406 369.339844 1018.945312 376.238281 C 1016.921875 379.160156 1014.898438 381.484375 1014.449219 381.335938 C 1012.800781 380.886719 999.683594 361.316406 995.785156 353.519531 C 987.992188 338.074219 982.371094 320.078125 979.894531 302.683594 C 978.171875 290.464844 978.773438 268.269531 981.09375 257.546875 C 990.539062 214.0625 1011.976562 190.367188 1051.171875 180.320312 C 1060.09375 177.996094 1072.683594 175.898438 1081.527344 175.222656 C 1090.898438 174.472656 1115.929688 174.847656 1125.074219 175.824219 Z M 1110.535156 201.914062 C 1111.882812 202.664062 1113.605469 204.464844 1114.429688 206.039062 C 1117.503906 212.035156 1117.804688 216.234375 1117.878906 254.171875 C 1117.953125 293.988281 1118.402344 299.835938 1122.675781 316.628906 C 1127.621094 336.347656 1134.070312 347.597656 1149.285156 363.566406 C 1163.074219 377.960938 1168.46875 384.785156 1175.890625 397.007812 C 1180.613281 404.652344 1181.210938 406.378906 1179.414062 406.378906 C 1178.8125 406.378906 1175.367188 407.878906 1171.617188 409.753906 C 1153.253906 418.972656 1142.386719 431.269531 1138.039062 447.765625 C 1136.542969 453.613281 1136.542969 462.535156 1137.964844 467.261719 L 1139.089844 470.859375 L 1136.765625 470.859375 C 1133.695312 470.859375 1125.222656 467.859375 1120.726562 465.160156 C 1115.78125 462.3125 1112.484375 458.710938 1110.308594 453.988281 C 1107.535156 447.992188 1107.160156 444.765625 1109.035156 443.492188 C 1112.40625 441.09375 1135.34375 401.128906 1139.238281 390.859375 C 1143.363281 379.761719 1135.191406 374.886719 1108.511719 372.5625 C 1099.964844 371.8125 1096.816406 371.886719 1088.273438 372.863281 C 1071.636719 374.886719 1065.414062 376.988281 1061.742188 381.859375 C 1059.042969 385.460938 1059.71875 388.082031 1066.914062 402.03125 C 1070.511719 409.152344 1074.332031 416.273438 1075.308594 417.773438 C 1076.207031 419.347656 1077.03125 420.773438 1077.03125 420.921875 C 1077.03125 421.824219 1086.476562 437.117188 1089.472656 441.019531 C 1092.472656 444.992188 1092.769531 445.742188 1092.320312 448.214844 C 1090.597656 457.8125 1083.101562 465.085938 1070.359375 469.433594 C 1066.988281 470.632812 1062.042969 471.382812 1062.042969 470.632812 C 1062.042969 470.558594 1062.566406 468.835938 1063.164062 466.808594 C 1065.5625 459.011719 1063.914062 446.714844 1059.269531 437.644531 C 1055.445312 430.070312 1048.402344 422.125 1039.929688 415.898438 C 1036.109375 413.125 1026.664062 408.328125 1022.542969 407.128906 C 1020.742188 406.601562 1019.320312 405.929688 1019.320312 405.628906 C 1019.320312 405.328125 1021.195312 401.953125 1023.515625 398.054688 C 1030.113281 387.109375 1039.183594 375.488281 1050.347656 363.714844 C 1061.515625 351.945312 1065.1875 346.847656 1070.960938 335.449219 C 1080.402344 316.554688 1083.628906 293.761719 1082.800781 251.550781 C 1082.054688 212.9375 1083.550781 204.3125 1091.648438 201.316406 C 1095.695312 199.738281 1107.238281 200.191406 1110.535156 201.914062 Z M 968.355469 241.128906 C 964.679688 253.199219 963.03125 263.769531 962.582031 278.242188 C 962.132812 293.613281 962.882812 302.460938 965.804688 316.929688 C 969.777344 336.574219 977.796875 357.042969 987.617188 372.5625 C 989.039062 374.738281 993.386719 380.960938 997.285156 386.285156 C 1001.257812 391.683594 1004.628906 396.480469 1004.855469 397.007812 C 1005.003906 397.605469 1004.703125 398.957031 1004.105469 400.078125 C 1002.980469 402.179688 1002.832031 402.253906 997.507812 402.03125 C 985.292969 401.503906 971.425781 404.503906 959.734375 410.050781 C 938.75 420.097656 926.757812 436.519531 925.183594 457.4375 L 924.65625 464.335938 L 919.710938 466.585938 C 906.820312 472.359375 882.3125 475.507812 868.296875 473.03125 C 862.75 472.058594 855.628906 468.308594 853.082031 465.011719 L 851.28125 462.609375 L 856.527344 457.363281 C 862.75 451.140625 870.542969 447.089844 881.113281 444.542969 C 884.785156 443.71875 889.433594 442.292969 891.378906 441.46875 C 893.328125 440.566406 895.128906 440.117188 895.351562 440.34375 C 896.625 441.617188 891.15625 447.992188 886.882812 450.164062 C 881.335938 452.9375 879.6875 458.9375 883.359375 463.285156 C 886.058594 466.585938 889.355469 466.960938 894.304688 464.636719 C 910.117188 457.289062 917.164062 437.042969 910.566406 417.851562 C 908.992188 413.199219 905.394531 407.351562 900.824219 401.878906 C 893.480469 393.105469 893.179688 385.234375 899.324219 366.640625 C 906.445312 345.269531 929.679688 298.335938 949.316406 265.71875 C 957.710938 251.625 969.027344 235.054688 969.628906 235.730469 C 969.851562 235.878906 969.253906 238.355469 968.355469 241.128906 Z M 1240.496094 247.652344 C 1252.714844 265.871094 1269.429688 295.636719 1282.769531 322.777344 C 1300.007812 357.867188 1305.855469 374.210938 1305.929688 386.882812 C 1306.003906 394.15625 1305.179688 396.105469 1298.058594 404.878906 C 1293.785156 410.203125 1290.640625 416.574219 1289.140625 422.796875 C 1288.015625 427.671875 1287.941406 436.96875 1289.066406 441.765625 C 1291.3125 451.441406 1298.660156 460.886719 1306.828125 464.636719 C 1310.574219 466.359375 1311.324219 466.433594 1314.023438 465.683594 C 1317.847656 464.484375 1320.09375 461.113281 1319.570312 457.136719 C 1319.195312 453.6875 1318.21875 452.488281 1314.773438 450.839844 C 1311.101562 449.117188 1306.601562 444.617188 1306.003906 442.140625 C 1305.703125 441.019531 1305.628906 439.894531 1305.777344 439.742188 C 1306.003906 439.519531 1307.429688 440.042969 1309.078125 440.792969 C 1310.652344 441.542969 1313.875 442.59375 1316.121094 443.117188 C 1324.066406 444.917969 1331.410156 447.617188 1336.285156 450.539062 C 1341.457031 453.613281 1349.101562 460.960938 1349.101562 462.910156 C 1349.101562 466.359375 1340.78125 471.535156 1332.535156 473.109375 C 1327.8125 474.082031 1314.472656 473.933594 1306.003906 472.957031 C 1297.757812 471.984375 1286.964844 469.132812 1280.820312 466.285156 L 1275.648438 463.886719 L 1275.648438 458.1875 C 1275.574219 427.671875 1245.519531 403.003906 1207.519531 402.253906 C 1197.699219 402.03125 1197.402344 401.953125 1196.5 400.230469 C 1195.601562 398.503906 1195.976562 397.832031 1201.222656 390.558594 C 1215.988281 370.238281 1222.585938 358.542969 1228.730469 341.671875 C 1237.800781 317.304688 1241.320312 288.0625 1238.175781 264.519531 C 1237.347656 258.523438 1232.628906 238.355469 1231.652344 236.628906 C 1231.355469 236.179688 1231.953125 236.480469 1232.851562 237.304688 C 1233.828125 238.128906 1237.273438 242.777344 1240.496094 247.652344 Z M 1119.003906 381.261719 C 1125.75 382.835938 1128.296875 384.035156 1129.945312 386.507812 C 1132.496094 390.484375 1130.84375 395.730469 1123.726562 406.601562 C 1120.277344 411.777344 1118.628906 412.976562 1120.878906 408.628906 C 1122.601562 405.328125 1123.125 399.628906 1122 396.257812 C 1120.800781 392.730469 1116.003906 387.410156 1111.734375 384.859375 C 1109.933594 383.808594 1106.261719 382.160156 1103.414062 381.109375 L 1098.390625 379.3125 L 1105.886719 379.609375 C 1110.007812 379.835938 1115.929688 380.585938 1119.003906 381.261719 Z M 1006.128906 419.5 C 1019.84375 421.898438 1030.5625 427.371094 1038.65625 435.917969 C 1047.277344 445.214844 1050.722656 457.8125 1046.675781 465.609375 C 1045.550781 467.785156 1041.429688 471.832031 1039.03125 473.03125 C 1036.785156 474.15625 1029.511719 474.082031 1026.441406 472.808594 C 1021.644531 470.785156 1018.71875 466.886719 1017.445312 460.738281 C 1016.621094 456.539062 1015.347656 454.289062 1013.25 453.238281 C 1009.953125 451.515625 1006.878906 451.816406 1004.328125 454.140625 C 1002.457031 455.863281 1001.929688 457.0625 1001.332031 461.410156 C 1000.582031 467.109375 999.234375 469.507812 995.335938 472.132812 C 992.414062 474.15625 985.96875 474.457031 982.667969 472.734375 C 979.894531 471.308594 976.75 467.558594 976.148438 465.011719 C 975.25 460.8125 974.050781 458.636719 971.800781 457.289062 C 968.578125 455.339844 966.105469 455.488281 963.257812 457.886719 C 961.234375 459.613281 960.632812 460.8125 960.035156 464.710938 C 958.835938 471.308594 956.285156 473.859375 950.816406 473.859375 C 943.621094 473.859375 941.371094 470.632812 941.371094 460.210938 C 941.445312 448.367188 945.867188 439.066406 954.9375 432.09375 C 969.929688 420.550781 987.464844 416.273438 1006.128906 419.5 Z M 1217.414062 419.5 C 1237.574219 423.023438 1252.5625 433.894531 1257.660156 448.742188 C 1259.535156 454.140625 1259.757812 465.984375 1258.109375 469.285156 C 1256.535156 472.285156 1253.6875 473.859375 1250.015625 473.859375 C 1244.84375 473.859375 1241.171875 470.109375 1241.171875 464.859375 C 1241.171875 460.0625 1237.199219 455.863281 1232.777344 455.863281 C 1230.15625 455.863281 1226.40625 459.6875 1225.359375 463.4375 C 1223.257812 470.933594 1218.835938 474.15625 1211.566406 473.707031 C 1204.070312 473.257812 1200.324219 469.285156 1199.273438 460.738281 C 1198.527344 454.214844 1196.875 452.488281 1191.628906 452.488281 C 1188.332031 452.488281 1187.582031 452.789062 1186.082031 454.664062 C 1185.109375 455.863281 1183.984375 458.789062 1183.535156 461.113281 C 1182.859375 464.410156 1181.960938 466.285156 1179.636719 468.835938 C 1176.039062 472.957031 1172.890625 474.15625 1166.597656 473.707031 C 1161.425781 473.40625 1158.050781 471.457031 1154.828125 466.960938 C 1153.332031 464.785156 1153.105469 463.585938 1153.105469 457.289062 C 1153.105469 450.539062 1153.253906 449.863281 1155.953125 444.464844 C 1164.949219 426.171875 1192.230469 415.074219 1217.414062 419.5 Z M 1217.414062 419.5 "/>
<path style=" stroke:none;fill-rule:nonzero;fill:rgb(0%,0%,0%);fill-opacity:1;" d="M 1019.695312 237.605469 C 1014.898438 239.777344 1008.902344 246.675781 1011.75 246.675781 C 1012.125 246.675781 1014.375 245.625 1016.695312 244.425781 C 1022.691406 241.277344 1028.539062 241.277344 1034.234375 244.425781 C 1036.484375 245.703125 1038.730469 246.675781 1039.332031 246.675781 C 1042.480469 246.675781 1037.609375 240.152344 1032.511719 237.753906 C 1028.613281 235.804688 1023.667969 235.730469 1019.695312 237.605469 Z M 1019.695312 237.605469 "/>
<path style=" stroke:none;fill-rule:nonzero;fill:rgb(0%,0%,0%);fill-opacity:1;" d="M 1167.871094 237.753906 C 1163.148438 240.152344 1158.203125 246.675781 1161.199219 246.675781 C 1161.648438 246.675781 1164.125 245.625 1166.523438 244.425781 C 1169.894531 242.703125 1171.917969 242.175781 1175.214844 242.175781 C 1178.515625 242.175781 1180.539062 242.703125 1183.910156 244.425781 C 1186.308594 245.625 1188.558594 246.675781 1188.933594 246.675781 C 1190.28125 246.675781 1189.230469 244.277344 1186.832031 241.800781 C 1181.136719 236.179688 1174.167969 234.679688 1167.871094 237.753906 Z M 1167.871094 237.753906 "/>
<path style=" stroke:none;fill-rule:nonzero;fill:rgb(0%,0%,0%);fill-opacity:1;" d="M 1019.09375 253.722656 C 1008.003906 257.847656 1002.53125 269.167969 1006.355469 279.890625 C 1010.476562 291.289062 1023.742188 296.6875 1034.609375 291.363281 C 1041.878906 287.839844 1045.851562 281.242188 1045.777344 272.917969 C 1045.777344 270.21875 1045.253906 266.84375 1044.652344 265.34375 C 1043.003906 261.671875 1039.183594 257.472656 1035.285156 255.148438 C 1031.160156 252.75 1023.515625 252.074219 1019.09375 253.722656 Z M 1027.863281 268.71875 C 1031.535156 270.21875 1033.558594 273.21875 1033.558594 277.191406 C 1033.558594 280.042969 1033.1875 280.941406 1031.011719 283.113281 C 1028.765625 285.363281 1028.015625 285.664062 1024.714844 285.664062 C 1021.492188 285.664062 1020.59375 285.289062 1018.644531 283.414062 C 1014.148438 278.917969 1015.273438 271.792969 1020.820312 269.019531 C 1023.96875 267.371094 1024.640625 267.371094 1027.863281 268.71875 Z M 1027.863281 268.71875 "/>
<path style=" stroke:none;fill-rule:nonzero;fill:rgb(0%,0%,0%);fill-opacity:1;" d="M 1168.246094 253.722656 C 1160.226562 256.648438 1154.753906 264.296875 1154.753906 272.917969 C 1154.679688 284.464844 1163.375 293.3125 1174.839844 293.3125 C 1186.535156 293.3125 1195.453125 284.316406 1195.453125 272.46875 C 1195.453125 266.769531 1191.78125 259.871094 1186.984375 256.648438 C 1181.0625 252.675781 1174.242188 251.625 1168.246094 253.722656 Z M 1179.339844 268.71875 C 1184.058594 270.742188 1186.234375 276.515625 1183.910156 281.089844 C 1182.261719 284.164062 1179.488281 285.664062 1175.515625 285.664062 C 1172.441406 285.664062 1171.691406 285.289062 1169.519531 282.964844 C 1167.421875 280.789062 1166.972656 279.742188 1166.972656 277.117188 C 1166.972656 273.292969 1168.996094 270.292969 1172.519531 268.71875 C 1175.515625 267.445312 1176.191406 267.445312 1179.339844 268.71875 Z M 1179.339844 268.71875 "/>
<path style=" stroke:none;fill-rule:nonzero;fill:rgb(0%,0%,0%);fill-opacity:1;" d="M 584.011719 526.34375 C 574.492188 529.792969 568.195312 538.863281 569.09375 548.085938 C 569.546875 553.484375 571.867188 557.757812 576.742188 562.257812 C 585.960938 570.804688 596.675781 570.277344 607.320312 560.832031 C 614.214844 554.757812 616.390625 548.160156 612.640625 545.160156 C 609.867188 542.988281 608.070312 543.210938 606.71875 545.910156 C 602.824219 553.335938 593.902344 558.957031 589.929688 556.40625 C 588.957031 555.808594 588.957031 555.507812 589.855469 554.308594 C 591.355469 552.359375 598.324219 544.1875 599.449219 542.988281 C 604.921875 537.140625 605.445312 533.539062 601.472656 529.714844 C 599 527.242188 592.929688 524.84375 589.558594 524.84375 C 588.65625 524.917969 586.183594 525.515625 584.011719 526.34375 Z M 589.707031 536.539062 C 590.605469 536.839844 591.355469 537.363281 591.355469 537.890625 C 591.355469 538.339844 589.257812 541.1875 586.707031 544.261719 C 582.511719 549.285156 581.988281 549.660156 581.085938 548.386719 C 580.5625 547.636719 580.113281 545.761719 580.113281 544.113281 C 580.113281 541.789062 580.636719 540.664062 582.660156 538.636719 C 585.210938 536.089844 586.484375 535.714844 589.707031 536.539062 Z M 589.707031 536.539062 "/>
<path style=" stroke:none;fill-rule:nonzero;fill:rgb(0%,0%,0%);fill-opacity:1;" d="M 1097.941406 527.390625 C 1082.578125 530.765625 1072.535156 544.1875 1072.535156 561.207031 C 1072.609375 581.449219 1084.152344 593.898438 1104.539062 595.695312 C 1117.578125 596.820312 1127.246094 592.398438 1127.246094 585.273438 C 1127.246094 581.527344 1124.550781 577.027344 1122.824219 577.777344 C 1111.808594 582.574219 1103.265625 582.050781 1097.117188 576.050781 C 1093.070312 572.152344 1091.796875 567.578125 1092.171875 559.03125 C 1092.394531 553.257812 1092.769531 551.757812 1094.417969 549.136719 C 1096.96875 545.160156 1099.667969 543.0625 1103.5625 542.011719 C 1107.910156 540.8125 1114.957031 541.5625 1119.304688 543.660156 L 1122.902344 545.460938 L 1125.074219 542.835938 C 1127.621094 539.839844 1127.847656 536.914062 1125.75 533.539062 C 1122.152344 527.691406 1109.484375 524.917969 1097.941406 527.390625 Z M 1097.941406 527.390625 "/>
<path style=" stroke:none;fill-rule:nonzero;fill:rgb(0%,0%,0%);fill-opacity:1;" d="M 1147.859375 540.886719 C 1141.488281 542.164062 1138.640625 543.886719 1137.890625 546.8125 C 1137.214844 549.359375 1137.589844 552.058594 1139.015625 554.457031 C 1139.839844 555.882812 1139.988281 555.882812 1145.386719 554.609375 C 1152.507812 552.960938 1159.777344 552.960938 1163.222656 554.683594 C 1165.324219 555.734375 1165.847656 556.40625 1165.847656 558.207031 L 1165.847656 560.457031 L 1157.828125 561.28125 C 1140.140625 563.082031 1134.894531 566.605469 1134.21875 577.25 C 1133.917969 581.449219 1134.144531 582.726562 1135.640625 585.574219 C 1139.316406 592.398438 1146.511719 595.320312 1160 595.320312 C 1169.96875 595.320312 1176.566406 593.597656 1180.988281 589.699219 L 1183.835938 587.222656 L 1183.835938 570.804688 C 1183.835938 554.683594 1183.835938 554.382812 1181.960938 550.710938 C 1177.464844 541.9375 1163.148438 537.8125 1147.859375 540.886719 Z M 1166.222656 576.878906 C 1166.222656 582.351562 1165.921875 582.574219 1159.027344 582.574219 C 1152.582031 582.574219 1148.984375 578.078125 1152.730469 574.703125 C 1154.003906 573.503906 1157.902344 572.753906 1164.949219 572.152344 C 1165.996094 572.078125 1166.222656 572.753906 1166.222656 576.878906 Z M 1166.222656 576.878906 "/>
<path style=" stroke:none;fill-rule:nonzero;fill:rgb(0%,0%,0%);fill-opacity:1;" d="M 1210.441406 541.414062 C 1203.546875 543.210938 1198.675781 546.136719 1196.800781 549.585938 C 1195.527344 551.984375 1195.378906 553.707031 1195.601562 570.953125 C 1195.828125 590.972656 1196.050781 592.097656 1199.726562 593.746094 C 1201.972656 594.796875 1209.691406 594.796875 1212.242188 593.820312 L 1214.191406 593.148438 L 1214.339844 574.628906 L 1214.566406 556.109375 L 1218.6875 555.132812 C 1220.933594 554.609375 1224.382812 554.160156 1226.332031 554.082031 C 1228.503906 554.082031 1230.304688 553.632812 1230.980469 552.882812 C 1232.554688 551.382812 1232.554688 545.910156 1230.980469 543.660156 C 1228.128906 539.6875 1220.335938 538.789062 1210.441406 541.414062 Z M 1210.441406 541.414062 "/>
<path style=" stroke:none;fill-rule:nonzero;fill:rgb(0%,0%,0%);fill-opacity:1;" d="M 1255.414062 540.960938 C 1241.398438 544.785156 1233.902344 557.53125 1236.675781 572.753906 C 1239.375 587.671875 1249.339844 595.320312 1266.28125 595.320312 C 1279.171875 595.320312 1286.140625 592.097656 1286.140625 586.175781 C 1286.140625 583.550781 1284.269531 578.828125 1283.144531 578.828125 C 1282.917969 578.828125 1281.121094 579.425781 1279.023438 580.25 C 1270.027344 583.625 1260.808594 582.875 1256.238281 578.300781 C 1254.8125 576.878906 1253.988281 575.453125 1254.363281 575.152344 C 1254.738281 574.777344 1261.257812 573.578125 1268.902344 572.453125 C 1276.472656 571.402344 1283.667969 569.980469 1284.867188 569.304688 C 1286.066406 568.703125 1287.492188 567.054688 1288.164062 565.480469 C 1290.488281 559.933594 1285.917969 549.285156 1279.320312 544.710938 C 1273.175781 540.363281 1263.132812 538.863281 1255.414062 540.960938 Z M 1268.902344 554.457031 C 1269.804688 554.984375 1272.125 559.332031 1271.75 559.707031 C 1271.601562 559.855469 1267.929688 560.53125 1263.65625 561.207031 C 1259.308594 561.882812 1255.1875 562.632812 1254.511719 562.78125 C 1251.589844 563.679688 1253.914062 556.484375 1257.136719 554.683594 C 1260.585938 552.808594 1266.054688 552.660156 1268.902344 554.457031 Z M 1268.902344 554.457031 "/>
<path style=" stroke:none;fill-rule:nonzero;fill:rgb(0%,0%,0%);fill-opacity:1;" d="M 550.507812 551.234375 C 544.738281 553.335938 539.117188 558.359375 536.492188 563.679688 C 533.042969 570.804688 534.992188 580.476562 541.214844 587.222656 C 547.433594 593.972656 556.730469 595.472656 565.871094 591.121094 C 572.394531 588.046875 575.464844 585.347656 576.066406 582.199219 C 576.664062 578.75 575.914062 576.726562 573.21875 575.378906 C 570.96875 574.179688 570.894531 574.253906 567.972656 577.25 C 563.023438 582.199219 557.328125 583.023438 552.832031 579.5 C 549.984375 577.25 548.632812 574.179688 548.632812 569.902344 C 548.632812 564.878906 551.40625 561.582031 557.253906 559.78125 C 560.699219 558.65625 561.375 558.132812 561.375 556.707031 C 561.375 553.933594 560.625 552.585938 558.300781 551.460938 C 555.902344 550.183594 553.65625 550.109375 550.507812 551.234375 Z M 550.507812 551.234375 "/>
<path style=" stroke:none;fill-rule:nonzero;fill:rgb(0%,0%,0%);fill-opacity:1;" d="M 506.886719 562.554688 C 505.089844 563.382812 503.664062 564.503906 503.664062 564.957031 C 503.664062 565.855469 507.113281 574.628906 512.433594 587.074219 C 516.253906 596.070312 516.554688 596.972656 519.328125 603.570312 C 521.875 609.792969 523.824219 611.066406 528.472656 609.566406 C 530.269531 608.96875 532.519531 607.769531 533.570312 606.867188 L 535.441406 605.21875 L 531.695312 596.371094 C 529.597656 591.421875 525.699219 582.199219 523.152344 575.828125 C 520.527344 569.453125 517.679688 563.457031 516.855469 562.480469 C 514.980469 560.382812 511.160156 560.382812 506.886719 562.554688 Z M 506.886719 562.554688 "/>
<path style=" stroke:none;fill-rule:nonzero;fill:rgb(0%,0%,0%);fill-opacity:1;" d="M 1183.386719 687.320312 C 1180.085938 687.84375 1178.664062 689.644531 1155.355469 722.257812 C 1151.683594 727.433594 1148.234375 731.707031 1147.710938 731.78125 C 1147.183594 731.78125 1145.761719 730.207031 1144.410156 728.257812 C 1138.640625 719.933594 1123.875 707.710938 1112.78125 702.015625 C 1108.136719 699.691406 1104.914062 700.066406 1102.214844 703.363281 C 1099.742188 706.289062 1099.742188 708.988281 1102.214844 715.210938 C 1105.363281 722.933594 1106.9375 729.230469 1108.210938 738.152344 C 1109.484375 747.675781 1109.484375 767.917969 1108.210938 777.515625 L 1107.386719 783.890625 L 1092.769531 784.339844 C 1072.910156 785.015625 1057.09375 787.113281 1044.804688 790.714844 C 1022.691406 797.160156 1008.003906 805.410156 994.0625 819.28125 C 990.089844 823.179688 985.515625 826.925781 983.417969 828.050781 C 974.949219 832.324219 966.707031 839.074219 958.835938 848.371094 C 954.789062 853.09375 946.617188 864.117188 946.617188 864.789062 C 946.617188 864.941406 944.96875 867.566406 942.871094 870.714844 C 940.847656 873.863281 939.125 876.636719 939.125 876.863281 C 939.125 877.160156 938 879.113281 936.574219 881.210938 C 933.351562 886.234375 929.453125 892.832031 926.15625 898.980469 C 924.734375 901.679688 920.761719 908.878906 917.386719 915.101562 C 913.941406 921.25 907.570312 933.621094 903.222656 942.46875 C 881.113281 987.003906 871.820312 1012.722656 869.121094 1036.640625 C 868.519531 1041.738281 868.519531 1064.605469 869.121094 1070.304688 C 870.769531 1086.949219 877.738281 1102.09375 889.132812 1113.867188 C 903.074219 1128.488281 920.984375 1135.910156 942.121094 1135.910156 C 959.511719 1135.910156 975.550781 1129.761719 987.992188 1118.214844 C 1007.777344 1099.84375 1019.769531 1070.527344 1021.941406 1034.691406 C 1022.167969 1030.789062 1022.542969 1026.515625 1022.769531 1025.167969 C 1023.441406 1020.367188 1035.808594 1004.023438 1048.625 990.828125 C 1057.46875 981.679688 1058.519531 980.480469 1063.089844 973.582031 C 1072.234375 959.9375 1076.207031 948.617188 1080.179688 925.222656 C 1081.679688 916.675781 1081.828125 912.777344 1081.902344 879.484375 C 1082.054688 842.222656 1082.429688 837.648438 1085.125 832.324219 C 1087.523438 827.75 1089.699219 826.703125 1097.566406 826.402344 C 1105.511719 826.027344 1108.886719 826.851562 1111.808594 829.777344 C 1116.082031 833.976562 1116.230469 835.699219 1116.753906 879.859375 C 1117.203125 916.601562 1117.429688 921.097656 1118.855469 928.296875 C 1122.453125 946.742188 1125.675781 956.636719 1131.445312 967.210938 C 1135.566406 974.707031 1139.164062 979.28125 1148.535156 989.179688 C 1159.476562 1000.800781 1166.070312 1008.671875 1170.644531 1015.421875 C 1175.816406 1023.144531 1176.488281 1024.71875 1177.015625 1030.566406 C 1180.164062 1063.105469 1185.257812 1081.101562 1196.800781 1100.296875 C 1199.726562 1105.167969 1199.574219 1104.945312 1205.121094 1111.542969 C 1214.640625 1122.9375 1226.480469 1130.359375 1241.398438 1134.183594 C 1248.21875 1135.910156 1249.792969 1136.058594 1259.460938 1135.683594 C 1271.828125 1135.234375 1277.746094 1134.035156 1286.742188 1130.210938 C 1310.199219 1120.164062 1325.941406 1099.996094 1329.988281 1074.652344 C 1331.488281 1065.503906 1331.488281 1042.039062 1329.988281 1031.617188 C 1328.9375 1023.96875 1326.691406 1014.445312 1325.042969 1010.171875 C 1324.589844 1009.046875 1323.765625 1006.574219 1323.242188 1004.699219 C 1316.496094 981.003906 1284.117188 915.101562 1259.683594 875.363281 C 1249.417969 858.640625 1244.769531 852.417969 1235.550781 842.898438 C 1228.804688 835.847656 1218.761719 828.425781 1214.714844 827.453125 C 1213.589844 827.152344 1212.089844 826.175781 1211.34375 825.277344 C 1210.667969 824.378906 1206.996094 820.554688 1203.097656 816.878906 L 1196.128906 810.058594 L 1198.898438 804.882812 C 1203.023438 797.011719 1209.316406 787.863281 1215.3125 781.039062 C 1222.285156 773.09375 1235.699219 760.121094 1241.996094 755.171875 C 1247.769531 750.675781 1249.191406 747.527344 1247.394531 743.253906 C 1245.820312 739.277344 1242.820312 738.230469 1232.476562 737.929688 C 1222.285156 737.628906 1212.839844 739.128906 1201.375 742.878906 L 1194.851562 745.050781 L 1194.402344 741.601562 C 1194.179688 739.726562 1193.804688 728.332031 1193.503906 716.410156 C 1193.128906 701.191406 1192.753906 693.917969 1192.003906 692.265625 C 1191.179688 690.167969 1186.90625 686.570312 1185.710938 686.945312 C 1185.484375 686.945312 1184.433594 687.167969 1183.386719 687.320312 Z M 1178.140625 734.40625 C 1178.214844 741.003906 1178.4375 749.699219 1178.738281 753.75 C 1179.1875 760.722656 1179.339844 761.320312 1181.585938 763.722656 C 1184.808594 767.171875 1187.207031 767.019531 1194.929688 763.195312 C 1202.273438 759.449219 1209.617188 756.671875 1213.964844 755.847656 C 1217.863281 755.097656 1217.863281 755.171875 1210.367188 762.894531 C 1207.144531 766.195312 1202.199219 771.820312 1199.351562 775.417969 L 1194.179688 781.941406 L 1188.40625 778.640625 C 1172.667969 769.71875 1154.003906 764.394531 1133.09375 762.820312 L 1125.75 762.296875 L 1125.75 756.449219 C 1125.75 751.125 1124.023438 735.304688 1122.976562 731.179688 C 1122.375 728.554688 1123.726562 729.230469 1128.074219 733.65625 C 1133.09375 738.828125 1136.617188 744.375 1138.117188 749.476562 C 1139.839844 755.546875 1145.011719 758.621094 1149.507812 756.296875 C 1151.757812 755.097656 1159.101562 745.5 1168.171875 731.78125 C 1171.320312 727.058594 1174.617188 722.410156 1175.515625 721.433594 C 1176.941406 719.859375 1177.089844 719.785156 1177.539062 721.058594 C 1177.839844 721.808594 1178.0625 727.808594 1178.140625 734.40625 Z M 1148.085938 775.941406 C 1160.152344 778.265625 1180.386719 785.464844 1186.457031 789.589844 L 1188.183594 790.714844 L 1185.257812 796.035156 L 1182.410156 801.359375 L 1175.964844 798.136719 C 1165.246094 792.8125 1151.605469 788.914062 1135.117188 786.4375 C 1129.796875 785.6875 1125 785.015625 1124.550781 785.015625 C 1123.875 785.015625 1124.398438 776.765625 1125.300781 774.144531 C 1125.675781 773.019531 1137.964844 773.992188 1148.085938 775.941406 Z M 1130.84375 803.308594 C 1173.792969 809.757812 1199.125 827.527344 1212.316406 860.367188 C 1218.613281 875.960938 1221.835938 892.980469 1221.761719 910.226562 C 1221.761719 935.871094 1214.339844 964.210938 1202.046875 985.503906 C 1198.675781 991.351562 1186.382812 1009.121094 1185.632812 1009.199219 C 1185.410156 1009.199219 1183.761719 1007.171875 1182.035156 1004.699219 C 1177.089844 997.652344 1171.320312 990.828125 1161.5 980.40625 C 1156.476562 975.082031 1151.605469 969.683594 1150.632812 968.410156 C 1145.3125 961.363281 1140.363281 950.488281 1137.816406 940.367188 C 1134.144531 925.972656 1133.769531 921.699219 1133.242188 879.484375 C 1132.792969 841.773438 1132.644531 839 1131.144531 833.523438 C 1130.246094 830.375 1128.746094 826.328125 1127.699219 824.527344 C 1121.851562 814.628906 1110.757812 809.757812 1096.21875 810.730469 C 1078.53125 811.929688 1069.613281 820.328125 1066.464844 838.699219 C 1065.9375 842.074219 1065.5625 856.617188 1065.414062 880.234375 C 1065.339844 908.878906 1065.039062 918.25 1064.066406 924.472656 C 1061.140625 944.042969 1055.519531 959.113281 1047.203125 969.460938 C 1045.703125 971.332031 1040.90625 976.507812 1036.558594 981.082031 C 1028.765625 989.253906 1022.242188 996.902344 1016.773438 1004.472656 C 1015.199219 1006.648438 1013.699219 1008.449219 1013.472656 1008.449219 C 1012.125 1008.371094 998.859375 988.203125 994.585938 979.582031 C 981.996094 954.613281 975.625 923.273438 978.023438 898.980469 C 981.019531 869.589844 992.261719 843.496094 1008.300781 828.800781 C 1013.25 824.226562 1022.542969 817.929688 1028.765625 814.78125 C 1038.507812 809.832031 1057.621094 804.660156 1071.785156 803.085938 C 1075.683594 802.632812 1080.105469 802.109375 1081.527344 801.960938 C 1087.898438 801.210938 1123.5 802.183594 1130.84375 803.308594 Z M 967.53125 866.738281 C 963.855469 878.660156 962.207031 889.082031 961.832031 904.304688 C 961.234375 925.824219 963.632812 942.316406 970.152344 962.1875 C 976.898438 982.730469 984.769531 996.902344 1003.054688 1021.195312 L 1006.652344 1026.066406 L 1006.203125 1032.816406 C 1003.128906 1076.003906 985.816406 1107.417969 959.882812 1116.789062 C 952.015625 1119.714844 943.996094 1120.613281 935.902344 1119.488281 C 927.804688 1118.441406 918.363281 1115.367188 912.292969 1111.839844 C 902.921875 1106.292969 892.054688 1093.320312 888.605469 1083.574219 C 883.960938 1070.527344 883.660156 1039.789062 887.859375 1023.066406 C 889.28125 1017.59375 894.304688 1002.449219 897.152344 995.328125 C 908.769531 966.085938 940.847656 903.929688 959.210938 874.988281 C 963.183594 868.765625 968.503906 861.339844 968.804688 861.640625 C 968.953125 861.792969 968.355469 864.117188 967.53125 866.738281 Z M 1236.976562 869.214844 C 1255.039062 895.15625 1288.390625 959.039062 1302.480469 994.578125 C 1307.351562 1006.949219 1312.222656 1022.769531 1313.574219 1030.640625 C 1315.371094 1040.914062 1315.371094 1067.230469 1313.574219 1075.253906 C 1308.925781 1096.921875 1294.910156 1111.542969 1272.277344 1118.363281 C 1265.605469 1120.390625 1252.414062 1120.238281 1244.695312 1118.066406 C 1229.480469 1113.714844 1218.613281 1104.792969 1209.316406 1089.125 C 1200.847656 1074.726562 1195.453125 1055.609375 1194.027344 1034.988281 L 1193.429688 1026.21875 L 1201.296875 1015.269531 C 1212.691406 999.523438 1216.738281 993.078125 1221.308594 983.554688 C 1231.054688 963.011719 1236.300781 943.066406 1238.25 919.300781 C 1239.449219 904.378906 1238.324219 891.707031 1234.277344 876.5625 C 1230.304688 861.417969 1230.304688 861.117188 1231.277344 861.792969 C 1231.804688 862.089844 1234.351562 865.390625 1236.976562 869.214844 Z M 1236.976562 869.214844 "/>
<path style=" stroke:none;fill-rule:nonzero;fill:rgb(0%,0%,0%);fill-opacity:1;" d="M 1017.371094 865.242188 C 1013.398438 867.488281 1010.324219 870.640625 1010.324219 872.4375 C 1010.324219 873.863281 1010.625 873.789062 1015.945312 871.164062 C 1019.46875 869.4375 1021.644531 868.914062 1024.867188 868.914062 C 1028.164062 868.914062 1030.039062 869.363281 1033.335938 871.164062 C 1039.707031 874.613281 1040.90625 874.238281 1037.832031 869.664062 C 1036.933594 868.316406 1034.386719 866.214844 1032.136719 865.089844 C 1026.738281 862.242188 1022.46875 862.316406 1017.371094 865.242188 Z M 1017.371094 865.242188 "/>
<path style=" stroke:none;fill-rule:nonzero;fill:rgb(0%,0%,0%);fill-opacity:1;" d="M 1167.195312 864.566406 C 1163.75 866.289062 1159.476562 870.640625 1159.476562 872.363281 C 1159.476562 873.9375 1160.375 873.789062 1165.324219 871.164062 C 1168.769531 869.363281 1170.644531 868.914062 1174.089844 868.914062 C 1177.539062 868.914062 1179.488281 869.363281 1182.9375 871.164062 C 1189.679688 874.613281 1190.503906 874.011719 1186.007812 869.0625 C 1180.761719 863.214844 1173.417969 861.492188 1167.195312 864.566406 Z M 1167.195312 864.566406 "/>
<path style=" stroke:none;fill-rule:nonzero;fill:rgb(0%,0%,0%);fill-opacity:1;" d="M 1018.195312 879.710938 C 1006.726562 882.710938 998.335938 890.507812 998.335938 898.230469 C 998.335938 902.28125 999.984375 904.980469 1002.457031 904.980469 C 1003.429688 904.980469 1006.878906 904.078125 1010.101562 903.027344 C 1013.625 901.90625 1018.570312 900.929688 1022.617188 900.703125 C 1028.839844 900.253906 1029.664062 900.40625 1037.683594 903.105469 C 1045.925781 905.878906 1046.226562 905.953125 1048.175781 904.679688 C 1052.222656 902.054688 1052.746094 895.90625 1049.300781 890.507812 C 1043.980469 882.035156 1029.136719 876.9375 1018.195312 879.710938 Z M 1018.195312 879.710938 "/>
<path style=" stroke:none;fill-rule:nonzero;fill:rgb(0%,0%,0%);fill-opacity:1;" d="M 1166.972656 879.5625 C 1152.207031 882.484375 1142.3125 896.207031 1149.507812 903.929688 C 1151.605469 906.253906 1153.554688 906.101562 1161.050781 902.953125 C 1167.796875 900.179688 1177.316406 899.804688 1184.585938 901.980469 C 1194.328125 904.902344 1195.378906 905.128906 1197.175781 904.679688 C 1199.199219 904.230469 1200.699219 901.453125 1200.699219 898.378906 C 1200.625 895.082031 1198.152344 890.582031 1194.554688 887.207031 C 1186.984375 880.3125 1177.164062 877.535156 1166.972656 879.5625 Z M 1166.972656 879.5625 "/>
<path style=" stroke:none;fill-rule:nonzero;fill:rgb(0%,0%,0%);fill-opacity:1;" d="M 239.839844 814.707031 C 232.945312 815.304688 225.75 817.328125 223.800781 819.128906 L 221.777344 821.003906 L 222 853.246094 L 222.226562 885.484375 L 224.25 887.433594 C 226.574219 889.757812 231.59375 890.507812 238.714844 889.609375 L 242.839844 889.160156 L 242.839844 866.964844 L 252.058594 866.589844 C 263.75 866.066406 268.472656 864.414062 274.015625 858.941406 C 278.964844 853.917969 280.6875 849.195312 280.6875 840.496094 C 280.6875 835.023438 280.386719 833.523438 278.589844 829.851562 C 275.292969 823.101562 268.996094 818.304688 260.453125 816.054688 C 256.402344 814.929688 245.3125 814.253906 239.839844 814.707031 Z M 254.53125 832.699219 C 257.679688 834.199219 259.328125 837.125 259.328125 841.023438 C 259.328125 847.246094 255.503906 850.246094 247.558594 850.246094 L 242.839844 850.246094 L 242.839844 831.5 L 247.410156 831.5 C 250.109375 831.5 253.03125 832.027344 254.53125 832.699219 Z M 254.53125 832.699219 "/>
<path style=" stroke:none;fill-rule:nonzero;fill:rgb(0%,0%,0%);fill-opacity:1;" d="M 356.910156 818.605469 L 354.4375 819.128906 L 354.4375 877.386719 L 356.238281 881.285156 C 359.386719 888.109375 364.855469 890.734375 376.175781 890.734375 C 384.117188 890.734375 387.417969 889.683594 389.964844 886.085938 C 391.761719 883.683594 391.988281 878.886719 390.488281 876.1875 C 389.441406 874.238281 389.289062 874.164062 384.71875 874.6875 C 375.347656 875.664062 373.777344 873.414062 374.152344 859.617188 L 374.375 851.371094 L 381.71875 850.996094 C 388.390625 850.695312 389.289062 850.46875 390.5625 848.820312 C 392.214844 846.796875 392.511719 840.421875 391.015625 837.5 C 390.113281 835.699219 389.664062 835.625 382.246094 835.25 L 374.375 834.875 L 374.300781 830 C 374.226562 823.101562 373.625 821.230469 370.851562 819.804688 C 368.230469 818.453125 360.808594 817.855469 356.910156 818.605469 Z M 356.910156 818.605469 "/>
<path style=" stroke:none;fill-rule:nonzero;fill:rgb(0%,0%,0%);fill-opacity:1;" d="M 306.546875 830.300781 C 294.105469 833.898438 286.683594 843.121094 285.785156 856.09375 C 285.257812 863.667969 286.457031 870.265625 289.457031 875.960938 C 295.453125 887.207031 309.167969 892.90625 325.359375 890.808594 C 338.625 889.082031 344.546875 883.308594 340.722656 875.8125 C 338.625 871.914062 338.023438 871.761719 331.578125 873.9375 C 321.835938 877.160156 310.816406 875.738281 307.519531 870.714844 C 306.84375 869.738281 306.546875 868.765625 306.769531 868.464844 C 307.070312 868.238281 314.265625 866.964844 322.808594 865.617188 C 331.429688 864.339844 339.148438 862.839844 340.046875 862.390625 C 342.894531 860.816406 344.019531 858.417969 344.019531 853.992188 C 344.019531 844.621094 339.296875 837.273438 330.378906 832.699219 C 325.058594 830 324.160156 829.777344 317.261719 829.550781 C 312.691406 829.402344 308.644531 829.625 306.546875 830.300781 Z M 322.433594 847.246094 C 323.632812 848.519531 324.457031 850.019531 324.308594 850.46875 C 324.007812 851.371094 311.34375 853.84375 306.769531 853.917969 C 304.371094 853.992188 304.371094 853.992188 305.195312 851.519531 C 306.921875 846.421875 310.742188 844.023438 316.589844 844.546875 C 319.660156 844.773438 320.710938 845.222656 322.433594 847.246094 Z M 322.433594 847.246094 "/>
<path style=" stroke:none;fill-rule:nonzero;fill:rgb(0%,0%,0%);fill-opacity:1;" d="M 277.238281 916.148438 C 262.550781 920.949219 250.257812 928.445312 238.265625 939.992188 C 229.648438 948.316406 222.300781 957.914062 218.554688 965.710938 L 216.230469 970.582031 L 216.230469 985.578125 C 216.230469 998.25 216.53125 1001.925781 217.953125 1009.199219 C 222.453125 1031.316406 227.847656 1048.1875 235.566406 1063.480469 C 239.539062 1071.503906 246.960938 1083.574219 249.734375 1086.5 C 250.257812 1087.097656 252.132812 1089.347656 253.929688 1091.523438 L 257.152344 1095.421875 L 252.207031 1103.371094 C 240.890625 1121.363281 231.222656 1142.882812 227.398438 1158.402344 C 226.125 1163.574219 226.050781 1172.648438 227.25 1176.546875 C 227.699219 1178.121094 230.097656 1181.796875 232.496094 1184.71875 C 234.894531 1187.570312 236.691406 1190.269531 236.46875 1190.71875 C 235.417969 1192.292969 229.722656 1194.46875 222.828125 1195.890625 C 218.777344 1196.640625 214.28125 1197.691406 212.859375 1198.140625 C 206.863281 1200.089844 196.367188 1205.9375 192.398438 1209.386719 C 187.074219 1214.1875 182.128906 1221.609375 182.128906 1224.984375 C 182.128906 1233.15625 192.847656 1241.925781 206.863281 1245.152344 C 215.929688 1247.25 259.476562 1246.652344 280.3125 1244.175781 C 311.792969 1240.351562 334.652344 1233.90625 347.542969 1225.058594 L 351.066406 1222.660156 L 354.0625 1224.308594 C 374.898438 1236.003906 388.015625 1240.128906 417.097656 1244.25 C 424.21875 1245.300781 455.171875 1245.527344 464.390625 1244.703125 C 475.933594 1243.652344 491.148438 1241.253906 496.917969 1239.679688 C 502.914062 1238.027344 510.558594 1235.628906 512.285156 1234.878906 C 519.027344 1232.03125 527.421875 1227.832031 532.070312 1224.984375 C 537.167969 1221.832031 539.640625 1221.160156 539.640625 1222.957031 C 539.640625 1223.332031 540.015625 1223.632812 540.464844 1223.632812 C 540.914062 1223.632812 542.339844 1224.457031 543.613281 1225.433594 C 546.234375 1227.382812 554.855469 1231.804688 559.128906 1233.304688 C 560.550781 1233.828125 562.425781 1234.578125 563.25 1234.878906 C 568.871094 1237.054688 583.410156 1240.429688 595.851562 1242.300781 C 618.414062 1245.75 630.480469 1246.5 659.183594 1246.5 C 681.59375 1246.425781 685.34375 1245.902344 694.335938 1241.550781 C 699.734375 1238.929688 705.28125 1233.828125 707.152344 1229.855469 C 708.726562 1226.558594 708.203125 1222.433594 705.652344 1218.382812 C 698.308594 1206.761719 685.417969 1199.265625 666.304688 1195.441406 C 660.085938 1194.242188 654.914062 1192.21875 653.9375 1190.644531 C 653.640625 1190.191406 655.136719 1188.019531 657.160156 1185.84375 C 666.53125 1175.496094 666.679688 1166.949219 657.761719 1142.207031 C 653.863281 1131.335938 644.195312 1112.515625 637 1101.570312 C 634.976562 1098.496094 633.328125 1095.796875 633.328125 1095.644531 C 633.328125 1095.496094 635.277344 1093.023438 637.675781 1090.25 C 654.761719 1070.378906 667.054688 1041.210938 673.125 1005.824219 C 675 994.875 675.375 977.105469 673.800781 970.582031 C 672.75 965.859375 667.65625 957.464844 660.609375 948.765625 C 648.316406 933.546875 631.152344 921.847656 612.417969 915.777344 C 602.671875 912.703125 597.726562 913.75 590.457031 920.574219 C 581.386719 929.046875 576.664062 943.890625 578.988281 956.714844 C 581.6875 972.082031 588.957031 981.304688 605.597656 990.527344 C 608.894531 992.328125 611.59375 994.203125 611.59375 994.652344 C 611.59375 996.601562 607.542969 1007.847656 604.398438 1014.371094 C 599.449219 1024.867188 590.304688 1036.1875 582.960938 1040.988281 C 580.9375 1042.261719 580.9375 1042.261719 574.34375 1037.914062 C 567.445312 1033.265625 561.074219 1029.515625 555.679688 1026.890625 C 553.132812 1025.617188 551.105469 1023.441406 546.085938 1016.394531 C 542.5625 1011.445312 539.640625 1007.023438 539.640625 1006.574219 C 539.640625 1006.046875 540.613281 1003.5 541.8125 1000.875 C 544.4375 995.027344 546.835938 988.054688 547.585938 984.078125 C 547.882812 982.429688 548.257812 980.554688 548.410156 979.957031 C 549.160156 977.257812 548.785156 959.636719 547.960938 955.214844 C 543.238281 931.070312 523.074219 916.148438 494.96875 916.148438 C 482.378906 916.148438 476.757812 917.574219 458.019531 925.222656 C 451.125 927.996094 449.625 928.371094 444.527344 928.371094 C 438.457031 928.296875 436.808594 927.847656 421.59375 921.625 C 411.773438 917.648438 404.128906 916.148438 393.789062 916.148438 C 372.953125 916.226562 357.4375 923.648438 348.21875 937.96875 C 343.644531 945.015625 341.921875 949.738281 340.574219 958.363281 C 338.25 973.582031 340.125 984.753906 348.066406 1003.273438 L 349.191406 1006.046875 L 341.921875 1016.246094 C 334.953125 1025.917969 334.277344 1026.667969 328.957031 1029.742188 C 325.882812 1031.464844 320.261719 1034.988281 316.4375 1037.539062 L 309.394531 1042.1875 L 305.945312 1039.636719 C 296.726562 1032.816406 287.957031 1020.519531 282.9375 1007.324219 C 280.914062 1002.074219 278.589844 994.125 278.964844 993.828125 C 279.113281 993.753906 282.859375 991.503906 287.359375 988.878906 C 300.925781 980.929688 306.996094 973.808594 310.742188 961.585938 C 312.765625 954.914062 312.617188 944.34375 310.367188 937.667969 C 306.84375 927.246094 300.550781 919.148438 293.429688 915.777344 C 288.558594 913.449219 285.183594 913.527344 277.238281 916.148438 Z M 289.605469 930.546875 C 291.105469 931.820312 293.28125 934.894531 294.554688 937.445312 C 300.398438 949.289062 298.449219 961.960938 289.53125 970.285156 C 286.457031 973.132812 277.539062 979.207031 276.339844 979.207031 C 276.117188 979.207031 275.742188 977.257812 275.441406 974.859375 C 274.917969 970.285156 274.09375 968.710938 271.542969 967.359375 C 268.769531 965.859375 265.546875 966.308594 263.375 968.484375 C 261.351562 970.433594 261.351562 970.582031 261.800781 978.007812 C 262.851562 994.425781 269.894531 1016.46875 278.289062 1029.515625 C 282.488281 1036.113281 289.605469 1044.511719 293.730469 1047.8125 C 295.753906 1049.460938 297.476562 1050.960938 297.476562 1051.183594 C 297.550781 1051.410156 294.253906 1054.410156 290.28125 1057.933594 C 283.910156 1063.554688 274.242188 1073.601562 268.097656 1081.101562 L 265.996094 1083.648438 L 263.824219 1081.550781 C 256.855469 1074.878906 244.863281 1053.285156 239.988281 1038.8125 C 234.742188 1023.144531 231.445312 1007.324219 230.171875 991.578125 C 229.046875 978.53125 229.871094 973.808594 234.144531 966.910156 C 242.164062 954.089844 256.179688 941.191406 269.371094 934.746094 C 273.34375 932.71875 284.960938 928.371094 286.457031 928.222656 C 286.757812 928.222656 288.183594 929.269531 289.605469 930.546875 Z M 616.238281 932.644531 C 631.902344 939.167969 645.46875 950.789062 655.585938 966.308594 C 660.757812 974.183594 661.582031 978.230469 660.382812 991.425781 C 657.238281 1026.140625 645.917969 1057.558594 628.753906 1079.152344 L 624.707031 1084.25 L 621.785156 1080.652344 C 620.136719 1078.703125 612.941406 1071.203125 605.746094 1064.007812 L 592.703125 1051.035156 L 595.550781 1048.710938 C 605.371094 1040.613281 614.140625 1028.089844 619.910156 1014.070312 C 623.808594 1004.398438 627.40625 990.378906 628.457031 980.707031 C 628.679688 978.457031 629.054688 975.609375 629.28125 974.484375 C 630.03125 970.734375 626.355469 966.535156 622.234375 966.460938 C 618.414062 966.460938 615.714844 969.535156 615.113281 974.632812 C 614.816406 976.808594 614.441406 978.832031 614.289062 979.054688 C 613.242188 980.03125 600.425781 970.882812 597.726562 967.136719 C 592.703125 960.460938 591.355469 949.664062 594.277344 940.742188 C 595.925781 935.792969 600.125 930.019531 602.824219 929.046875 C 604.621094 928.371094 608.292969 929.347656 616.238281 932.644531 Z M 406.078125 933.921875 C 408.703125 934.519531 414.324219 936.46875 418.671875 938.34375 C 430.738281 943.441406 435.460938 944.714844 442.953125 944.714844 C 451.425781 944.714844 455.621094 943.890625 463.714844 940.59375 C 482.078125 933.019531 487.925781 931.746094 499.242188 932.796875 C 507.488281 933.546875 513.558594 935.417969 518.878906 938.867188 C 533.195312 948.015625 537.089844 970.808594 527.949219 992.175781 C 521.128906 1008.074219 511.382812 1021.792969 493.546875 1040.613281 C 479.53125 1055.457031 473.910156 1064.605469 468.585938 1081.324219 C 463.117188 1098.269531 461.542969 1115.441406 461.765625 1156.003906 C 461.917969 1187.945312 461.691406 1191.617188 458.617188 1197.839844 C 456.746094 1201.816406 453.296875 1203.539062 446.328125 1203.988281 C 435.460938 1204.664062 430.511719 1201.441406 428.414062 1192.367188 C 427.441406 1187.867188 427.214844 1181.871094 427.214844 1154.878906 C 427.214844 1121.289062 426.691406 1111.015625 424.21875 1097.296875 C 422.117188 1085.523438 419.421875 1076.753906 415.222656 1067.753906 C 410.351562 1057.558594 406.527344 1052.382812 395.8125 1041.289062 C 377.746094 1022.617188 366.582031 1006.722656 359.386719 989.328125 C 354.738281 978.007812 354.964844 959.488281 359.910156 949.664062 C 361.707031 946.140625 367.328125 939.992188 370.628906 937.96875 C 379.171875 932.644531 393.261719 931.070312 406.078125 933.921875 Z M 364.480469 1029.816406 C 367.554688 1033.941406 374.449219 1041.960938 379.773438 1047.660156 C 392.8125 1061.757812 395.210938 1064.753906 399.035156 1072.179688 C 403.15625 1080.277344 405.78125 1088.074219 407.726562 1098.269531 C 410.203125 1111.542969 410.726562 1121.289062 410.726562 1155.027344 C 410.800781 1189.144531 411.175781 1194.167969 414.398438 1202.789062 C 418.96875 1214.859375 431.863281 1221.535156 448.574219 1220.410156 C 462.066406 1219.585938 471.210938 1213.0625 475.257812 1201.589844 C 478.03125 1193.640625 478.40625 1188.167969 478.480469 1151.28125 C 478.628906 1115.289062 478.929688 1110.191406 481.628906 1096.921875 C 484.328125 1083.949219 489.574219 1071.203125 495.496094 1063.332031 C 497.144531 1061.230469 502.089844 1055.609375 506.511719 1050.960938 C 516.855469 1040.089844 521.351562 1034.839844 526.074219 1027.941406 C 528.246094 1024.867188 530.121094 1022.320312 530.269531 1022.320312 C 530.496094 1022.320312 533.867188 1026.890625 537.765625 1032.441406 C 556.203125 1058.609375 565.871094 1089.046875 565.949219 1120.839844 C 565.949219 1134.710938 565.121094 1141.15625 561.675781 1154.503906 C 555.078125 1180.445312 543.835938 1197.691406 525.472656 1210.136719 C 519.851562 1213.886719 507.636719 1219.734375 500.664062 1221.984375 C 476.15625 1229.929688 439.058594 1231.730469 407.804688 1226.558594 C 372.351562 1220.632812 348.515625 1204.738281 335.027344 1177.972656 C 328.503906 1165.074219 323.484375 1145.804688 322.359375 1129.761719 C 320.261719 1100.144531 329.929688 1062.957031 345.667969 1039.5625 C 347.917969 1036.265625 351.515625 1030.941406 353.6875 1027.71875 C 355.863281 1024.492188 357.886719 1021.945312 358.261719 1022.09375 C 358.5625 1022.242188 361.332031 1025.691406 364.480469 1029.816406 Z M 572.992188 1054.109375 C 584.085938 1061.90625 600.875 1077.875 611.742188 1090.921875 C 628.082031 1110.492188 643.371094 1139.058594 649.066406 1160.578125 C 651.691406 1170.550781 651.242188 1172.273438 643.371094 1179.621094 C 632.878906 1189.59375 629.804688 1199.714844 633.777344 1211.863281 C 636.25 1219.359375 648.019531 1228.882812 654.839844 1228.882812 C 660.308594 1228.882812 663.457031 1224.609375 661.808594 1219.507812 C 661.058594 1217.261719 660.234375 1216.511719 656.710938 1214.9375 C 651.988281 1212.835938 649.441406 1210.8125 647.867188 1207.738281 C 645.84375 1203.765625 646.445312 1203.164062 650.417969 1205.113281 C 654.3125 1207.0625 658.285156 1208.1875 665.554688 1209.460938 C 675.972656 1211.1875 683.917969 1214.859375 690.140625 1220.859375 C 694.035156 1224.683594 694.113281 1226.183594 690.515625 1227.980469 C 683.46875 1231.503906 678.148438 1232.253906 659.933594 1232.253906 C 632.503906 1232.253906 614.214844 1230.980469 593.980469 1227.757812 C 576.367188 1224.90625 559.277344 1219.285156 551.40625 1213.734375 L 549.382812 1212.3125 L 553.65625 1207.289062 C 567.972656 1190.417969 577.714844 1166.949219 581.6875 1139.660156 C 583.1875 1129.609375 582.8125 1109.59375 580.9375 1097.222656 C 579.4375 1086.949219 575.167969 1069.929688 573.066406 1065.207031 C 571.644531 1062.132812 567.371094 1051.183594 567.371094 1050.734375 C 567.371094 1050.210938 568.496094 1050.886719 572.992188 1054.109375 Z M 316.964844 1059.808594 C 309.019531 1079.078125 304.371094 1105.242188 305.347656 1126.164062 C 305.871094 1138.007812 307.21875 1147.304688 310.21875 1158.851562 C 315.6875 1179.847656 324.007812 1196.417969 335.027344 1208.113281 C 337.574219 1210.886719 339.597656 1213.285156 339.449219 1213.4375 C 339.296875 1213.585938 336.976562 1214.9375 334.277344 1216.359375 C 315.765625 1226.558594 276.566406 1232.554688 230.847656 1232.332031 C 213.308594 1232.179688 211.359375 1232.03125 206.863281 1230.53125 C 204.164062 1229.632812 201.015625 1228.058594 199.742188 1227.082031 C 196.96875 1224.832031 197.34375 1223.933594 203.488281 1218.984375 C 208.734375 1214.710938 215.40625 1211.9375 224.851562 1210.136719 C 232.792969 1208.5625 237.441406 1207.0625 241.113281 1204.890625 C 244.113281 1203.164062 244.261719 1203.988281 241.863281 1208.261719 C 240.589844 1210.585938 239.015625 1211.863281 235.042969 1213.8125 C 230.996094 1215.835938 229.722656 1216.886719 228.824219 1218.984375 C 226.796875 1223.859375 229.945312 1228.882812 235.042969 1228.882812 C 241.1875 1228.882812 251.980469 1220.785156 255.65625 1213.4375 C 257.152344 1210.363281 257.453125 1208.636719 257.453125 1202.640625 C 257.453125 1196.191406 257.226562 1195.066406 255.054688 1190.417969 C 253.257812 1186.746094 251.007812 1183.746094 246.660156 1179.394531 C 242.761719 1175.496094 240.515625 1172.648438 240.214844 1171.074219 C 239.464844 1167.773438 240.363281 1163.050781 243.289062 1154.128906 C 252.957031 1125.1875 269.820312 1098.421875 292.679688 1075.550781 C 300.699219 1067.53125 318.011719 1052.757812 319.4375 1052.683594 C 319.738281 1052.683594 318.613281 1055.910156 316.964844 1059.808594 Z M 316.964844 1059.808594 "/>
<path style=" stroke:none;fill-rule:nonzero;fill:rgb(0%,0%,0%);fill-opacity:1;" d="M 437.707031 958.511719 C 433.136719 961.511719 424.140625 976.058594 410.652344 1002.222656 C 403.457031 1016.09375 402.929688 1018.269531 405.480469 1022.542969 C 411.25 1031.992188 450.824219 1035.289062 474.507812 1028.242188 C 479.53125 1026.742188 481.554688 1025.390625 483.503906 1022.167969 C 484.777344 1020.144531 485 1018.945312 484.625 1016.546875 C 484.175781 1013.769531 478.03125 1001.25 470.535156 987.980469 C 468.960938 985.128906 467.6875 982.730469 467.6875 982.582031 C 467.6875 981.53125 455.695312 962.636719 453.746094 960.6875 C 449.625 956.488281 442.355469 955.4375 437.707031 958.511719 Z M 448.199219 968.859375 C 451.574219 971.183594 457.71875 980.480469 466.863281 997.277344 C 476.308594 1014.671875 476.605469 1016.996094 469.9375 1021.117188 C 465.738281 1023.667969 464.390625 1023.144531 467.386719 1020.144531 C 471.210938 1016.320312 470.910156 1014.222656 464.988281 1002.75 C 458.46875 990.152344 451.796875 978.457031 447.75 972.609375 C 445.953125 969.984375 444.453125 967.734375 444.453125 967.585938 C 444.453125 966.761719 445.878906 967.285156 448.199219 968.859375 Z M 448.199219 968.859375 "/>
<path style=" stroke:none;fill-rule:nonzero;fill:rgb(0%,0%,0%);fill-opacity:1;" d="M 363.433594 1111.464844 C 354.140625 1114.765625 349.265625 1121.8125 349.265625 1131.710938 C 349.34375 1139.132812 352.941406 1145.28125 359.535156 1149.179688 C 362.082031 1150.679688 364.257812 1151.203125 368.453125 1151.503906 C 373.550781 1151.804688 374.449219 1151.65625 378.796875 1149.480469 C 384.34375 1146.78125 387.640625 1142.882812 389.367188 1137.109375 C 390.789062 1132.386719 390.789062 1129.6875 389.289062 1124.664062 C 386.292969 1114.464844 373.402344 1107.867188 363.433594 1111.464844 Z M 375.800781 1117.238281 C 377.222656 1118.363281 377.746094 1119.488281 377.746094 1121.363281 C 377.746094 1126.6875 373.925781 1130.660156 368.753906 1130.660156 C 361.707031 1130.660156 357.0625 1122.039062 361.632812 1117.539062 C 363.207031 1115.890625 364.105469 1115.664062 368.605469 1115.664062 C 372.726562 1115.664062 374.226562 1115.964844 375.800781 1117.238281 Z M 375.800781 1117.238281 "/>
<path style=" stroke:none;fill-rule:nonzero;fill:rgb(0%,0%,0%);fill-opacity:1;" d="M 511.984375 1111.691406 C 510.109375 1112.367188 506.886719 1114.539062 504.714844 1116.714844 C 501.566406 1119.789062 500.515625 1121.4375 499.542969 1124.960938 C 496.394531 1135.835938 501.789062 1146.855469 512.132812 1150.679688 C 515.582031 1151.953125 522.328125 1151.878906 526.222656 1150.53125 C 534.019531 1147.832031 538.890625 1141.234375 539.488281 1132.535156 C 539.789062 1127.8125 539.566406 1126.539062 537.917969 1122.863281 C 534.394531 1115.214844 528.398438 1111.09375 520.152344 1110.71875 C 516.929688 1110.566406 514.15625 1110.867188 511.984375 1111.691406 Z M 526.148438 1116.789062 C 530.269531 1118.890625 530.046875 1124.585938 525.699219 1128.335938 C 519.777344 1133.585938 511.160156 1129.460938 511.160156 1121.363281 C 511.160156 1117.539062 513.855469 1115.664062 519.554688 1115.664062 C 522.027344 1115.664062 524.949219 1116.191406 526.148438 1116.789062 Z M 526.148438 1116.789062 "/>
<path style=" stroke:none;fill-rule:nonzero;fill:rgb(0%,0%,0%);fill-opacity:1;" d="M 354.964844 1157.503906 C 354.214844 1158.703125 357.4375 1162.75 360.960938 1165.226562 C 367.703125 1169.875 376.398438 1168.898438 381.796875 1162.828125 C 384.269531 1160.128906 385.394531 1156.902344 383.820312 1156.902344 C 383.519531 1156.902344 380.894531 1158.101562 378.046875 1159.601562 C 373.402344 1162.078125 372.425781 1162.300781 368.527344 1161.925781 C 365.679688 1161.703125 362.90625 1160.800781 360.132812 1159.226562 C 355.636719 1156.679688 355.488281 1156.601562 354.964844 1157.503906 Z M 354.964844 1157.503906 "/>
<path style=" stroke:none;fill-rule:nonzero;fill:rgb(0%,0%,0%);fill-opacity:1;" d="M 504.414062 1158.402344 C 504.414062 1160.503906 508.761719 1165.152344 512.285156 1166.726562 C 516.03125 1168.449219 521.726562 1168.523438 525.25 1166.875 C 528.921875 1165.074219 533.644531 1160.425781 533.644531 1158.550781 C 533.644531 1157.652344 533.492188 1156.902344 533.269531 1156.902344 C 533.042969 1156.902344 531.09375 1157.953125 528.847656 1159.152344 C 521.875 1163.125 515.207031 1162.902344 508.910156 1158.703125 C 505.761719 1156.527344 504.414062 1156.453125 504.414062 1158.402344 Z M 504.414062 1158.402344 "/>
<path style=" stroke:none;fill-rule:nonzero;fill:rgb(0%,0%,0%);fill-opacity:1;" d="M 1086.773438 998.402344 C 1085.726562 998.550781 1082.578125 999.074219 1079.65625 999.523438 C 1063.914062 1002 1059.042969 1005.296875 1059.042969 1013.394531 C 1059.042969 1016.246094 1076.058594 1048.484375 1084.152344 1060.933594 C 1089.398438 1068.953125 1091.195312 1070.828125 1095.246094 1072.554688 C 1100.714844 1074.800781 1106.261719 1072.703125 1110.910156 1066.480469 C 1114.058594 1062.355469 1125.824219 1041.886719 1133.917969 1026.367188 C 1138.640625 1017.371094 1139.238281 1015.71875 1139.238281 1012.046875 C 1139.238281 1008.597656 1138.941406 1007.699219 1137.214844 1006.046875 C 1133.992188 1003.050781 1131.144531 1001.925781 1122.675781 1000.199219 C 1116.90625 999 1111.507812 998.476562 1101.765625 998.324219 C 1094.570312 998.175781 1087.824219 998.175781 1086.773438 998.402344 Z M 1111.058594 1007.699219 C 1128.074219 1010.621094 1130.921875 1014.746094 1124.25 1026.816406 C 1122 1030.867188 1117.503906 1037.613281 1115.855469 1039.5625 C 1115.480469 1039.9375 1115.855469 1038.738281 1116.753906 1036.714844 C 1119.078125 1031.539062 1119.453125 1026.367188 1117.953125 1022.394531 C 1115.707031 1016.546875 1108.0625 1010.847656 1098.015625 1007.621094 L 1093.894531 1006.273438 L 1098.167969 1006.273438 C 1100.492188 1006.199219 1106.261719 1006.875 1111.058594 1007.699219 Z M 1111.058594 1007.699219 "/>
<path style=" stroke:none;fill-rule:nonzero;fill:rgb(0%,0%,0%);fill-opacity:1;" d="M 1096.519531 1097.519531 C 1092.921875 1101.496094 1087.375 1105.617188 1082.578125 1107.792969 C 1075.683594 1110.941406 1075.53125 1110.941406 1071.335938 1106.816406 C 1062.265625 1097.972656 1045.027344 1094.148438 1028.3125 1097.371094 C 1014.222656 1099.996094 1005.453125 1105.617188 999.160156 1116.039062 C 992.789062 1126.539062 993.3125 1143.257812 1000.207031 1153.453125 L 1002.082031 1156.152344 L 999.53125 1159.527344 C 996.011719 1164.101562 994.960938 1167.476562 994.960938 1174.523438 C 994.960938 1179.621094 995.261719 1181.121094 997.136719 1184.871094 C 999.234375 1189.070312 1005.15625 1195.292969 1008.675781 1196.867188 C 1010.402344 1197.691406 1010.925781 1199.640625 1009.425781 1199.640625 C 1007.703125 1199.640625 1001.332031 1205.714844 999.609375 1208.9375 C 997.960938 1212.011719 997.960938 1212.3125 997.960938 1247.25 C 997.960938 1281.664062 998.035156 1282.566406 999.53125 1285.9375 C 1001.855469 1290.886719 1005.980469 1295.160156 1010.550781 1297.1875 C 1014.074219 1298.835938 1015.421875 1298.984375 1024.941406 1298.910156 C 1033.710938 1298.835938 1036.484375 1298.535156 1041.804688 1296.960938 L 1048.175781 1295.085938 L 1048.402344 1285.640625 L 1048.625 1276.191406 L 1051.398438 1275.742188 C 1053.871094 1275.367188 1060.917969 1273.492188 1063.316406 1272.59375 C 1063.765625 1272.445312 1065.414062 1274.691406 1066.988281 1277.691406 C 1072.382812 1287.964844 1083.027344 1296.136719 1094.871094 1299.058594 C 1109.335938 1302.660156 1128.597656 1300.183594 1137.367188 1293.660156 L 1139.691406 1291.9375 L 1141.863281 1293.4375 C 1146.734375 1296.734375 1151.230469 1298.535156 1157.152344 1299.660156 C 1174.390625 1302.960938 1188.257812 1298.386719 1194.179688 1287.515625 C 1198.824219 1278.816406 1198.074219 1268.84375 1192.15625 1260.746094 C 1189.382812 1257 1189.382812 1256.921875 1191.78125 1254.300781 C 1199.425781 1245.902344 1199.574219 1233.230469 1192.304688 1220.183594 L 1189.757812 1215.761719 L 1184.359375 1215.535156 C 1180.761719 1215.386719 1178.964844 1215.011719 1178.964844 1214.410156 C 1178.964844 1212.910156 1175.964844 1207.664062 1173.867188 1205.488281 C 1171.617188 1203.015625 1171.769531 1202.9375 1179.789062 1202.339844 C 1195.003906 1201.066406 1208.570312 1193.792969 1212.765625 1184.496094 C 1214.488281 1180.671875 1214.566406 1179.769531 1214.714844 1162.527344 C 1214.863281 1142.507812 1214.414062 1138.457031 1210.96875 1131.410156 C 1206.394531 1121.964844 1196.425781 1114.839844 1184.136719 1112.292969 C 1177.089844 1110.792969 1164.273438 1110.867188 1157.226562 1112.367188 C 1148.757812 1114.242188 1140.363281 1114.464844 1132.71875 1113.042969 C 1119.378906 1110.566406 1111.359375 1106.667969 1103.640625 1099.09375 L 1099.066406 1094.671875 Z M 1054.695312 1113.417969 C 1063.316406 1116.640625 1066.089844 1124.363281 1060.84375 1130.585938 L 1058.96875 1132.835938 L 1055.746094 1131.410156 C 1048.101562 1127.960938 1037.15625 1127.660156 1033.261719 1130.734375 C 1028.914062 1134.183594 1031.085938 1136.359375 1042.554688 1140.332031 C 1057.167969 1145.355469 1063.691406 1150.15625 1066.164062 1157.652344 C 1067.8125 1162.675781 1067.4375 1170.25 1065.1875 1174.597656 C 1063.089844 1178.796875 1057.542969 1183.519531 1052.671875 1185.320312 C 1039.480469 1190.269531 1019.246094 1188.167969 1012.5 1181.195312 C 1010.175781 1178.796875 1009.953125 1178.195312 1009.953125 1174.148438 C 1009.953125 1170.023438 1010.175781 1169.5 1012.648438 1167.023438 L 1015.347656 1164.324219 L 1020.742188 1167.175781 C 1025.691406 1169.722656 1026.738281 1170.023438 1033.484375 1170.25 C 1040.457031 1170.550781 1040.832031 1170.472656 1043.152344 1168.523438 C 1048.25 1164.25 1045.925781 1161.703125 1032.4375 1156.902344 C 1014.375 1150.453125 1009.578125 1145.429688 1009.578125 1133.285156 C 1009.578125 1125.414062 1014.824219 1117.539062 1022.242188 1114.316406 C 1030.488281 1110.792969 1046.453125 1110.265625 1054.695312 1113.417969 Z M 1114.132812 1127.0625 C 1123.574219 1129.160156 1131.671875 1135.835938 1134.742188 1144.007812 C 1137.066406 1150.082031 1137.515625 1160.277344 1135.867188 1166.648438 C 1134.21875 1173.023438 1131.894531 1176.921875 1127.171875 1181.195312 C 1121.625 1186.21875 1115.480469 1187.945312 1105.0625 1187.492188 L 1097.269531 1187.117188 L 1097.269531 1196.714844 C 1097.269531 1207.511719 1097.644531 1206.914062 1090.898438 1207.214844 C 1083.402344 1207.589844 1081.679688 1207.214844 1079.128906 1204.964844 L 1076.65625 1202.789062 L 1076.433594 1170.847656 C 1076.207031 1135.007812 1076.132812 1135.382812 1081.527344 1131.484375 C 1088.648438 1126.3125 1102.515625 1124.4375 1114.132812 1127.0625 Z M 1183.085938 1127.363281 C 1191.628906 1129.460938 1196.800781 1133.886719 1198.898438 1140.859375 C 1200.175781 1145.058594 1200.398438 1175.046875 1199.199219 1178.195312 C 1198.226562 1180.746094 1193.054688 1184.417969 1188.40625 1185.84375 C 1172.890625 1190.492188 1153.78125 1187.570312 1147.710938 1179.695312 C 1142.6875 1173.023438 1143.0625 1161.550781 1148.457031 1156.304688 C 1152.429688 1152.480469 1156.851562 1150.980469 1168.84375 1149.628906 C 1179.714844 1148.355469 1179.789062 1148.355469 1179.5625 1146.554688 C 1178.964844 1141.832031 1170.792969 1140.03125 1160.152344 1142.28125 C 1150.855469 1144.308594 1150.332031 1144.230469 1148.757812 1141.15625 C 1147.035156 1137.859375 1147.484375 1133.433594 1149.808594 1130.960938 C 1154.304688 1126.164062 1170.792969 1124.4375 1183.085938 1127.363281 Z M 1053.046875 1210.886719 C 1064.964844 1214.710938 1070.960938 1221.832031 1071.636719 1232.929688 C 1072.234375 1243.128906 1069.984375 1249.574219 1063.765625 1255.199219 C 1059.042969 1259.472656 1053.421875 1261.273438 1042.929688 1261.796875 L 1033.933594 1262.246094 L 1033.710938 1273.191406 L 1033.484375 1284.140625 L 1030.710938 1284.664062 C 1025.914062 1285.414062 1019.394531 1285.191406 1016.695312 1284.066406 C 1012.199219 1282.117188 1012.199219 1282.492188 1011.976562 1247.925781 C 1011.75 1217.035156 1011.75 1216.359375 1013.324219 1214.484375 C 1017.519531 1209.164062 1040.980469 1206.988281 1053.046875 1210.886719 Z M 1161.050781 1213.960938 C 1164.421875 1215.683594 1164.871094 1216.585938 1165.398438 1224.007812 L 1165.847656 1230.007812 L 1173.265625 1230.007812 C 1180.164062 1230.007812 1180.761719 1230.15625 1181.8125 1231.730469 C 1182.484375 1232.78125 1183.011719 1235.253906 1183.011719 1237.878906 C 1183.085938 1241.550781 1182.785156 1242.601562 1181.285156 1244.175781 C 1179.636719 1245.902344 1178.886719 1246.125 1172.667969 1246.277344 L 1165.847656 1246.5 L 1165.621094 1256.398438 L 1165.398438 1266.21875 L 1167.496094 1267.871094 C 1169.371094 1269.371094 1170.121094 1269.445312 1174.917969 1269.070312 C 1181.0625 1268.46875 1181.886719 1268.996094 1182.484375 1273.71875 C 1183.011719 1277.691406 1181.585938 1281.742188 1179.039062 1283.539062 C 1175.816406 1285.863281 1168.097656 1286.914062 1161.726562 1285.9375 C 1153.480469 1284.664062 1149.507812 1282.191406 1146.511719 1276.492188 C 1144.9375 1273.566406 1144.859375 1272.742188 1144.859375 1243.503906 L 1144.859375 1213.511719 L 1147.109375 1212.984375 C 1151.308594 1212.085938 1158.277344 1212.535156 1161.050781 1213.960938 Z M 1121.101562 1227.007812 C 1129.195312 1231.207031 1133.167969 1236.453125 1134.742188 1244.777344 C 1135.867188 1250.25 1135.117188 1253.925781 1132.496094 1256.171875 C 1129.945312 1258.273438 1126.875 1259.023438 1111.507812 1261.121094 C 1105.136719 1262.023438 1099.214844 1262.996094 1098.390625 1263.371094 C 1096.96875 1263.894531 1097.042969 1264.046875 1099.367188 1266.21875 C 1104.089844 1270.644531 1113.007812 1271.394531 1122.601562 1268.167969 L 1128.371094 1266.296875 L 1130.394531 1268.542969 C 1132.121094 1270.492188 1132.496094 1271.617188 1132.496094 1274.691406 C 1132.496094 1278.140625 1132.195312 1278.816406 1129.945312 1280.992188 C 1126.796875 1283.914062 1121.328125 1285.714844 1113.308594 1286.3125 C 1096.21875 1287.664062 1082.054688 1279.792969 1077.78125 1266.445312 C 1076.433594 1262.097656 1076.207031 1259.921875 1076.433594 1252.722656 C 1076.65625 1244.851562 1076.882812 1243.800781 1079.128906 1239.226562 C 1084.453125 1228.433594 1093.894531 1223.40625 1108.136719 1223.859375 C 1115.179688 1224.082031 1116.003906 1224.308594 1121.101562 1227.007812 Z M 1121.101562 1227.007812 "/>
<path style=" stroke:none;fill-rule:nonzero;fill:rgb(0%,0%,0%);fill-opacity:1;" d="M 1099.367188 1142.730469 L 1097.269531 1143.558594 L 1097.269531 1170.324219 L 1100.265625 1171.148438 C 1105.8125 1172.648438 1111.808594 1170.324219 1114.28125 1165.75 C 1115.179688 1163.949219 1115.554688 1161.550781 1115.628906 1156.902344 C 1115.628906 1149.855469 1114.429688 1146.78125 1110.609375 1143.933594 C 1108.285156 1142.207031 1102.363281 1141.609375 1099.367188 1142.730469 Z M 1099.367188 1142.730469 "/>
<path style=" stroke:none;fill-rule:nonzero;fill:rgb(0%,0%,0%);fill-opacity:1;" d="M 1170.867188 1162.902344 C 1164.347656 1163.875 1161.949219 1167.699219 1165.699219 1171.148438 C 1167.121094 1172.574219 1168.097656 1172.722656 1173.117188 1172.5 C 1176.265625 1172.347656 1179.039062 1172.125 1179.1875 1171.898438 C 1179.414062 1171.671875 1179.714844 1169.5 1179.789062 1167.023438 L 1180.011719 1162.527344 L 1177.390625 1162.453125 C 1176.039062 1162.375 1173.042969 1162.601562 1170.867188 1162.902344 Z M 1170.867188 1162.902344 "/>
<path style=" stroke:none;fill-rule:nonzero;fill:rgb(0%,0%,0%);fill-opacity:1;" d="M 1033.636719 1234.65625 C 1033.636719 1239.152344 1034.085938 1243.203125 1034.460938 1243.652344 C 1035.507812 1245 1042.929688 1244.851562 1045.550781 1243.503906 C 1048.476562 1242.003906 1049.300781 1240.277344 1049.300781 1235.855469 C 1049.300781 1229.480469 1045.777344 1226.632812 1038.058594 1226.632812 L 1033.484375 1226.632812 Z M 1033.636719 1234.65625 "/>
<path style=" stroke:none;fill-rule:nonzero;fill:rgb(0%,0%,0%);fill-opacity:1;" d="M 1101.242188 1240.578125 C 1098.765625 1241.851562 1097.117188 1243.800781 1096.21875 1246.652344 C 1095.542969 1248.824219 1096.519531 1248.824219 1106.335938 1247.175781 C 1115.628906 1245.601562 1115.707031 1245.527344 1113.15625 1242.453125 C 1111.433594 1240.351562 1110.460938 1239.902344 1107.386719 1239.601562 C 1104.839844 1239.453125 1102.8125 1239.753906 1101.242188 1240.578125 Z M 1101.242188 1240.578125 "/>
</g>
</svg>
